{"title":"Child.44.2015.WEBRIP.iTALiAN.AUDIO.XViD-FANTA","uid":12109717,"size":2000856990,"categoryP":"video","categoryS":"movies","magnet":"?xt=urn:btih:fa47458f7507368a888711aefa5eeeef076e8760&amp;dn=Child.44.2015.WEBRIP.iTALiAN.AUDIO.XViD-FANTA&amp;tr=udp%3A%2F%2Ftracker.openbittorrent.com%3A80&amp;tr=udp%3A%2F%2Fopen.demonii.com%3A1337&amp;tr=udp%3A%2F%2Ftracker.coppersurfer.tk%3A6969&amp;tr=udp%3A%2F%2Fexodus.desync.com%3A6969","seeders":28,"leechers":4,"uploader":"xxxlavalxxx","files":2,"time":1436542315,"description":" &lt;a href=&quot;http://extraimago.com/image/cC9&quot; rel=&quot;nofollow&quot; target=&quot;_NEW&quot;&gt;http://extraimago.com/image/cC9&lt;/a&gt;\n &lt;a href=&quot;\nhttp://www.imdb.com/title/tt1014763/&quot; rel=&quot;nofollow&quot; target=&quot;_NEW&quot;&gt;\nhttp://www.imdb.com/title/tt1014763/&lt;/a&gt;\n\n\nA disgraced member of the military police investigates a series of nasty child murders during the Stalin-era Soviet Union.\n\nDirector: Daniel Espinosa\nWriters: Richard Price (screenplay), Tom Rob Smith (novel)\nStars: Tom Hardy, Gary Oldman, Noomi Rapace \nGenres: Drama | Thriller\nCountry: USA | UK | Czech Republic | Romania | Russia\n\n\nFormat                                   : AVI\nFormat/Info                              : Audio Video Interleave\nFormat profile                           : OpenDML\nFormat settings                          : rec\nFile size                                : 1.86 GiB\nDuration                                 : 2h 11mn\nOverall bit rate                         : 2 029 Kbps\nWriting application                      : AVI-Mux GUI 1.17.8.3, Feb 16 201019:42:50\n\nVideo\nID                                       : 0\nFormat                                   : MPEG-4 Visual\nFormat profile                           : Advanced Simple@L5\nFormat settings, BVOP                    : 2\nFormat settings, QPel                    : No\nFormat settings, GMC                     : No warppoints\nFormat settings, Matrix                  : Default (MPEG)\nCodec ID                                 : XVID\nCodec ID/Hint                            : XviD\nDuration                                 : 2h 11mn\nBit rate                                 : 1 839 Kbps\nWidth                                    : 720 pixels\nHeight                                   : 400 pixels\nDisplay aspect ratio                     : 16:9\nFrame rate                               : 25.000 fps\nColor space                              : YUV\nChroma subsampling                       : 4:2:0\nBit depth                                : 8 bits\nScan type                                : Progressive\nCompression mode                         : Lossy\nBits/(Pixel*Frame)                       : 0.255\nStream size                              : 1.69 GiB (91%)\nWriting library                          : XviD 1.2.1 (UTC 2008-12-04)\n\nAudio\nID                                       : 1\nFormat                                   : AC-3\nFormat/Info                              : Audio Coding 3\nMode extension                           : CM (complete main)\nFormat settings, Endianness              : Big\nCodec ID                                 : 2000\nDuration                                 : 2h 6mn\nBit rate mode                            : Constant\nBit rate                                 : 192 Kbps\nChannel(s)                               : 2 channels\nChannel positions                        : Front: L R\nSampling rate                            : 44.1 KHz\nBit depth                                : 16 bits\nCompression mode                         : Lossy\nStream size                              : 174 MiB (9%)\nAlignment                                : Aligned on interleaves\nInterleave, duration                     : 73 ms (1.81 video frames)\nInterleave, preload duration             : 208 ms\nTitle                                    : Child 44 {2015} ITA\n &lt;a href=&quot;\nhttp://extraimago.com/image/cCM&quot; rel=&quot;nofollow&quot; target=&quot;_NEW&quot;&gt;\nhttp://extraimago.com/image/cCM&lt;/a&gt; &lt;a href=&quot;\nhttp://extraimago.com/image/cCU&quot; rel=&quot;nofollow&quot; target=&quot;_NEW&quot;&gt;\nhttp://extraimago.com/image/cCU&lt;/a&gt; &lt;a href=&quot;\nhttp://extraimago.com/image/cCz&quot; rel=&quot;nofollow&quot; target=&quot;_NEW&quot;&gt;\nhttp://extraimago.com/image/cCz&lt;/a&gt; &lt;a href=&quot;\nhttp://extraimago.com/image/cC0&quot; rel=&quot;nofollow&quot; target=&quot;_NEW&quot;&gt;\nhttp://extraimago.com/image/cC0&lt;/a&gt; &lt;a href=&quot;\nhttp://extraimago.com/image/cCJ&quot; rel=&quot;nofollow&quot; target=&quot;_NEW&quot;&gt;\nhttp://extraimago.com/image/cCJ&lt;/a&gt; &lt;a href=&quot;\nhttp://extraimago.com/image/cCK&quot; rel=&quot;nofollow&quot; target=&quot;_NEW&quot;&gt;\nhttp://extraimago.com/image/cCK&lt;/a&gt; &lt;a href=&quot;\nhttp://extraimago.com/image/cCZ&quot; rel=&quot;nofollow&quot; target=&quot;_NEW&quot;&gt;\nhttp://extraimago.com/image/cCZ&lt;/a&gt; &lt;a href=&quot;\nhttp://extraimago.com/image/cCe&quot; rel=&quot;nofollow&quot; target=&quot;_NEW&quot;&gt;\nhttp://extraimago.com/image/cCe&lt;/a&gt; &lt;a href=&quot;\nhttp://extraimago.com/image/cC4&quot; rel=&quot;nofollow&quot; target=&quot;_NEW&quot;&gt;\nhttp://extraimago.com/image/cC4&lt;/a&gt; &lt;a href=&quot;\nhttp://extraimago.com/image/cCB&quot; rel=&quot;nofollow&quot; target=&quot;_NEW&quot;&gt;\nhttp://extraimago.com/image/cCB&lt;/a&gt;","torrent":{"xt":"urn:btih:fa47458f7507368a888711aefa5eeeef076e8760","amp;dn":"Child.44.2015.WEBRIP.iTALiAN.AUDIO.XViD-FANTA","amp;tr":["udp%3A%2F%2Ftracker.openbittorrent.com%3A80","udp%3A%2F%2Fopen.demonii.com%3A1337","udp%3A%2F%2Ftracker.coppersurfer.tk%3A6969","udp%3A%2F%2Fexodus.desync.com%3A6969"],"infoHash":"fa47458f7507368a888711aefa5eeeef076e8760","infoHashBuffer":{"type":"Buffer","data":[250,71,69,143,117,7,54,138,136,135,17,174,250,94,238,239,7,110,135,96]},"announce":[],"urlList":[]}}